# xmcd
#
# Track frame offsets:
#	150
#	16179
#	38831
#	60018
#	101276
#	119462
#
# Disc length: 2036 seconds
#
# Revision: 0
# Processed by: cddbd v1.5.1PL2 Copyright (c) Steve Scherf et al.
# Submitted via: EasyCDDAExtractor 10.0.1.1
#
DISCID=3907f206
DTITLE=Grateful Dead - Fillmore West
DYEAR=11111111111111111966
DGENRE=Blues
TTITLE0=Cold Rain and Snow
TTITLE1=It's All Over Now Baby Blue
TTITLE2=Cream Puff War
TTITLE3=King Bee
TTITLE4=Stealin'
TTITLE5=Dancin' In The Streets
EXTD=
EXTT0=
EXTT1=
EXTT2=
EXTT3=
EXTT4=
EXTT5=
PLAYORDER=
